<?xml version="1.0" standalone="no"?>
<!DOCTYPE svg PUBLIC "-//W3C//DTD SVG 1.1//EN" "http://www.w3.org/Graphics/SVG/1.1/DTD/svg11.dtd" >
<svg xmlns="http://www.w3.org/2000/svg">
<metadata>
Created by FontForge 20120731 at Thu Aug 21 13:52:51 2014
 By Ads
</metadata>
<defs>
<font id="iconfont" horiz-adv-x="1024" >
  <font-face 
    font-family="iconfont"
    font-weight="500"
    font-stretch="normal"
    units-per-em="1024"
    panose-1="2 0 6 3 0 0 0 0 0 0"
    ascent="812"
    descent="-212"
    x-height="792"
    bbox="30 -203 995 792"
    underline-thickness="50"
    underline-position="-100"
    unicode-range="U+0078-E610"
  />
<missing-glyph horiz-adv-x="374" 
d="M34 0v682h272v-682h-272zM68 34h204v614h-204v-614z" />
    <glyph glyph-name=".notdef" horiz-adv-x="374" 
d="M34 0v682h272v-682h-272zM68 34h204v614h-204v-614z" />
    <glyph glyph-name=".null" horiz-adv-x="0" 
 />
    <glyph glyph-name="nonmarkingreturn" horiz-adv-x="341" 
 />
    <glyph glyph-name="x" unicode="x" horiz-adv-x="1001" 
d="M281 543q-27 -1 -53 -1h-83q-18 0 -36.5 -6t-32.5 -18.5t-23 -32t-9 -45.5v-76h912v41q0 16 -0.5 30t-0.5 18q0 13 -5 29t-17 29.5t-31.5 22.5t-49.5 9h-133v-97h-438v97zM955 310v-52q0 -23 0.5 -52t0.5 -58t-10.5 -47.5t-26 -30t-33 -16t-31.5 -4.5q-14 -1 -29.5 -0.5
t-29.5 0.5h-32l-45 128h-439l-44 -128h-29h-34q-20 0 -45 1q-25 0 -41 9.5t-25.5 23t-13.5 29.5t-4 30v167h911zM163 247q-12 0 -21 -8.5t-9 -21.5t9 -21.5t21 -8.5q13 0 22 8.5t9 21.5t-9 21.5t-22 8.5zM316 123q-8 -26 -14 -48q-5 -19 -10.5 -37t-7.5 -25t-3 -15t1 -14.5
t9.5 -10.5t21.5 -4h37h67h81h80h64h36q23 0 34 12t2 38q-5 13 -9.5 30.5t-9.5 34.5q-5 19 -11 39h-368zM336 498v228q0 11 2.5 23t10 21.5t20.5 15.5t34 6h188q31 0 51.5 -14.5t20.5 -52.5v-227h-327z" />
    <glyph glyph-name="uniE600" unicode="&#xe600;" 
d="M927 761h-833q-19 0 -32 -13t-13 -31q0 -14 8 -25t20 -16v-598q0 -7 5 -12t12 -5h400v-83l-267 -107q-7 -3 -9.5 -9t-0.5 -13q2 -4 6.5 -7t9.5 -3q3 0 6 1l272 109l271 -109q2 0 3.5 -0.5t2.5 -0.5q5 0 9.5 3t6.5 7q2 7 -0.5 13t-8.5 9l-268 107v83h400q7 0 12 5t5 12
v598q12 5 20 16t8 25q0 12 -6 22t-16.5 16t-22.5 6zM911 94h-801v579h801v-579zM927 706h-833q-5 0 -8.5 3t-3.5 8t3.5 8t8.5 3h833q12 0 12 -11q0 -5 -3.5 -8t-8.5 -3zM194 176q5 -4 11 -4q8 0 13 7l194 241l162 -133l227 281q11 12 -2 23q-5 4 -12 3.5t-11 -6.5l-206 -254
l-163 133l-215 -268q-4 -5 -3.5 -12t5.5 -11z" />
    <glyph glyph-name="uniE601" unicode="&#xe601;" 
d="M513 777h-1v0q-178 0 -312 -118q-129 -113 -156 -281q-6 -38 -6 -76q0 -96 37.5 -184t101 -151.5t151 -101t184.5 -38.5v0h1q97 0 185 38t151.5 101.5t101 151.5t37.5 184q0 78 -24 150.5t-68 131t-102.5 102t-131 67.5t-149.5 24zM532 493q75 2 147 20q22 -89 24 -192
h-171v172zM532 531v205q26 -7 51 -31t47 -64t38 -92q-67 -16 -136 -18zM494 737v-206q-70 2 -137 18q24 79 61 128.5t76 59.5zM494 493v-172h-172q2 103 24 192q73 -18 148 -20zM284 321h-208q7 146 99 258q32 -17 66 -31.5t69 -24.5q-8 -31 -13.5 -63.5t-9 -67.5t-3.5 -71z
M284 283q1 -53 7.5 -104t18.5 -97q-70 -21 -135 -57q-92 113 -99 258h208zM322 283h172v-171q-38 -1 -75 -6t-73 -14q-22 88 -24 191zM494 74v-206q-26 7 -51 31t-47.5 64.5t-38.5 91.5q16 5 33 8t34 5.5t34.5 3.5t35.5 2zM532 -132v206q18 -1 35 -2t34 -3.5t34 -5.5t33 -7
q-16 -52 -38 -92t-47 -64.5t-51 -31.5zM532 112v171h171q-1 -52 -7.5 -100t-16.5 -91q-18 5 -36 8t-36.5 5.5t-37 4t-37.5 2.5zM741 283h209q-7 -145 -99 -258q-65 36 -136 57q24 95 26 201zM741 321q-2 107 -26 202q24 7 47 15.5t45 19t44 22.5q92 -113 99 -259h-209z
M824 609q-19 -11 -38.5 -19.5t-39.5 -16.5t-41 -14q-34 110 -90 168q121 -29 209 -118zM410 727q-28 -29 -50.5 -71.5t-39.5 -95.5q-12 3 -24.5 7.5t-24.5 9t-23.5 9.5t-23 11t-22.5 12q21 21 44.5 39.5t50 33.5t55 26.5t58.5 18.5zM201 -4q57 31 119 49q34 -109 90 -167
q-121 29 -209 118zM615 -123q56 59 90 169q62 -19 120 -50q-89 -89 -210 -119z" />
    <glyph glyph-name="uniE602" unicode="&#xe602;" 
d="M991 293q0 78 -24.5 151.5t-68.5 132.5t-103 103t-132.5 68.5t-150.5 24.5q-98 0 -186.5 -38t-153 -102.5t-102.5 -153t-38 -186.5q0 -101 40 -191t111 -157v-1l12 -10q51 -46 114 -75l1 -1h1q1 -1 2 -1l4 -2q80 -35 167 -40h5h1q3 -1 4 -1h3h3h3h1h2h6h5h2h1h3h1h2h1h2
q1 0 4 1h1h5q33 2 65 8t62 16.5t59 24.5q14 7 27.5 15t26.5 16.5t25 18t24 20.5l12 10v1q71 66 111 156.5t40 191.5zM65 293q0 61 16 119t45 107t70 90t90 70t107 45t119 16q90 0 173 -35.5t142.5 -95t95 -142.5t35.5 -174q0 -94 -37 -178t-103 -146q-49 47 -138 72
q-31 14 -38 19l-7 7q-6 7 -9 10t-5.5 8.5t-3.5 12.5v69q13 15 22.5 36t18.5 51q12 5 22.5 18t13.5 30q8 36 -6 54q19 71 16 129t-27 90q-5 7 -11 12.5t-12.5 9.5t-14.5 7t-16 4t-17 1q-3 3 -7 8q-2 3 -4 5.5t-4.5 5t-5 4t-6 3.5t-7.5 3.5t-9 2.5t-11 1.5t-13.5 1t-16.5 0.5
h-6q-97 0 -145 -57q-62 -74 -35 -233q-12 -17 -6 -51q3 -15 12 -28t20 -19q20 -60 45 -88q2 -63 0 -73q-1 -7 -5 -14t-11 -14q-12 -12 -45 -25q-92 -25 -141 -73q-66 62 -103 146t-37 178zM725 -99h-1l-4 -2q-3 -2 -6 -3q0 -1 -1 -1h-1q-85 -43 -181 -48h-1h-8h-1h-1h-8h-5
h-4h-1h-1h-8h-1q-91 4 -174 44h-1q-2 2 -5 3l-22 12q-11 6 -21 12.5t-20 14t-19 14.5q43 41 127 64q21 9 34 16t23 17q21 21 26 45q2 15 0 86v6l-5 5q-23 24 -45 88l-1 11h-12q-2 1 -4.5 4t-5.5 8.5t-4 11.5q-1 5 -1.5 10t0 8.5t0.5 5.5l11 2l-3 16q-27 150 26 215
q38 45 120 45h6q12 0 20.5 -0.5t13.5 -1.5t8.5 -3t5 -3.5t3.5 -4.5q9 -13 20 -19l4 -3l9 1q15 0 26 -5.5t19 -16.5q20 -26 20.5 -80.5t-18.5 -121.5l-2 -16l12 -4q2 -9 -1 -24q-3 -13 -12 -22l-13 11l-7 -23q-19 -68 -41 -90l-5 -5v-84q4 -28 28 -52l8 -8q12 -10 49 -26
q40 -11 72 -27t52 -36q-32 -26 -68 -46z" />
    <glyph glyph-name="uniE603" unicode="&#xe603;" 
d="M976 366h-117q-5 0 -9 2t-6 6t-2 9t2 9t6 6t9 2h117q2 0 4 -0.5t3.5 -1t2.5 -2.5l4 -2q1 -2 1.5 -3.5t1 -3.5t0.5 -4q0 -3 -0.5 -5.5t-2.5 -4.5t-4 -3.5t-4.5 -2.5t-5.5 -1zM823 583q-5 -5 -12 -5t-12 5t-5 12t5 12l83 83q5 6 12 6t12 -5.5t5 -12.5t-5 -12zM862 115
q-2 -2 -4.5 -3t-5 -1.5t-5.5 0t-5.5 2t-3.5 2.5l-84 84q-5 5 -5 12t5 12t12 5t12 -5l84 -83q5 -5 5 -12.5t-5 -12.5zM562 278l-69 70l131 132q12 11 28 11t28 -11l14 -14q11 -12 11 -28t-11 -28zM604 623q-4 0 -7 1.5t-5.5 3.5t-4 5.5t-1.5 6.5v118q0 5 2.5 9t6.5 6.5t8 2.5
q8 0 13 -5t5 -13v-118q0 -4 -2.5 -8t-6.5 -6.5t-8 -2.5zM116 -171q-8 -7 -18 -10t-20 0t-17 10l-14 14q-12 12 -12 28t12 28l422 424l69 -69zM409 512l-81 82q-12 11 0 23q5 5 12 5t11 -5l82 -81q11 -12 0 -24q-5 -5 -12 -5t-12 5z" />
    <glyph glyph-name="uniE604" unicode="&#xe604;" 
d="M511 745l-178 -178v72h-142v-214l-126 -125l25 -25l421 420l420 -420l26 25zM226 603h71v-71l-71 -71v142zM191 283v-427h249v249h142v-249h249v427l-320 320zM796 -109h-178v214v35h-36h-142h-36v-35v-214h-178v377l285 285l285 -285v-377z" />
    <glyph glyph-name="uniE605" unicode="&#xe605;" 
d="M930 614h-833q-7 0 -14 -1.5t-12.5 -5t-10.5 -8.5t-8 -10.5t-5 -12.5t-2 -14v-52v-139v-329q0 -14 7 -26t19 -19t26 -7h833q21 0 36.5 15t15.5 37v329v139v52q0 11 -4.5 20.5t-11 16.5t-16.5 11t-20 4zM80 476h867v-70h-867v70zM947 42q0 -3 -1 -5.5t-2.5 -5t-3.5 -4
t-4.5 -2.5t-5.5 -1h-833q-5 0 -9 2.5t-6 6.5t-2 9v329h867v-329zM80 510v52q0 7 5 12.5t12 5.5h833q7 0 12 -5.5t5 -12.5v-52h-867zM149 129h347v-35h-347v35zM149 233h208v-35h-208v35zM773 94h70q15 0 25 10t10 24v2q0 14 -10 23.5t-25 9.5h-70q-14 0 -24 -9.5t-10 -23.5
v-2q0 -14 10 -24t24 -10z" />
    <glyph glyph-name="uniE606" unicode="&#xe606;" 
d="M337 475q-30 0 -51.5 -21.5t-21.5 -52t21.5 -52t51.5 -21.5t52 21.5t22 52t-22 52t-52 21.5zM337.5 362q-16.5 0 -28.5 11.5t-12 27.5q0 9 3.5 16t8.5 12.5t12.5 8.5t15.5 3q17 0 28.5 -11.5t11.5 -28t-11.5 -28t-28 -11.5zM510 475q-31 0 -52.5 -21.5t-21.5 -52.5
q0 -19 10 -36t27 -27t37 -10q30 0 51.5 21.5t21.5 51.5q0 15 -6 29t-15.5 23.5t-23.5 15.5t-28 6zM510 362q-11 0 -20.5 5t-14.5 14.5t-5 19.5q0 5 1 9.5t3 8.5t4.5 7.5t6 6t7.5 4.5t8.5 3t9.5 1q16 0 27.5 -11.5t11.5 -28t-11.5 -28t-27.5 -11.5zM682 475q-30 0 -52 -21.5
t-22 -52t22 -52t52 -21.5t51.5 21.5t21.5 52t-21.5 52t-51.5 21.5zM682 362q-8 0 -15.5 3t-13 8.5t-8.5 12.5t-3 15q0 11 5.5 20.5t14.5 14.5t20 5t20 -5t14.5 -14.5t5.5 -20t-5.5 -20t-14.5 -14.5t-20 -5zM982 120v565q0 30 -21.5 51.5t-52.5 21.5h-792q-15 0 -28.5 -6
t-23.5 -15.5t-16 -23.5t-6 -29v-566q0 -29 21 -50.5t50 -22.5h1h2h446l221 -222q5 -5 12 -5l6 2q11 4 11 15v210h96h2h1q29 1 49.5 21.5t21.5 49.5v2v2zM948 118q0 -16 -11.5 -27.5t-28.5 -11.5l-2 -1h-111q-5 0 -8.5 -2t-6 -6t-2.5 -8v-186l-197 197q-3 3 -6 4t-6 1h-451
l-2 1q-17 0 -28.5 11.5t-11.5 27.5v566q0 17 11.5 28.5t28.5 11.5h792q8 0 15.5 -3t13 -8.5t8.5 -13t3 -15.5v-566z" />
    <glyph glyph-name="uniE607" unicode="&#xe607;" 
d="M967 -147h-910q-3 0 -6.5 -1t-5.5 -3.5t-3.5 -5.5t-1.5 -7q0 -2 1 -5t2.5 -5t3.5 -3.5t4.5 -2.5t5.5 -1h910q7 0 12 5t5 12t-5 12t-12 5zM166 -67h687q7 0 12 5t5 12v569q0 7 -5 12t-12 5h-211v210q0 7 -4.5 12t-12.5 5h-227q-7 0 -12 -5t-5 -12v-438h-215
q-3 0 -6.5 -1.5t-5.5 -3.5t-3.5 -5t-1.5 -7v-341q0 -7 5 -12t12 -5zM642 501h194v-534h-194v534zM415 729h193v-762h-193v762zM183 274h198v-307h-198v307z" />
    <glyph glyph-name="uniE608" unicode="&#xe608;" 
d="M896 652h-768q-23 0 -39 -16t-16 -38v-459q0 -15 7.5 -27.5t20 -19.5t27.5 -7h356v-81h-137q-11 0 -19 -8t-8 -19q0 -7 3.5 -13.5t10 -10t13.5 -3.5h329q4 0 7.5 1t6.5 2.5t5.5 4t4.5 5.5t3 6.5t1 7.5q0 11 -8.5 19t-19.5 8h-137v81h357q22 0 38 16t16 38v459
q0 22 -16 38t-38 16zM896 139h-768v459h768v-459zM896 652h-768q-23 0 -39 -16t-16 -38v-459q0 -15 7.5 -27.5t20 -19.5t27.5 -7h356v-81h-137q-11 0 -19 -8t-8 -19q0 -7 3.5 -13.5t10 -10t13.5 -3.5h329q4 0 7.5 1t6.5 2.5t5.5 4t4.5 5.5t3 6.5t1 7.5q0 11 -8.5 19t-19.5 8
h-137v81h357q22 0 38 16t16 38v459q0 22 -16 38t-38 16zM896 139h-768v459h768v-459z" />
    <glyph glyph-name="uniE609" unicode="&#xe609;" 
d="M854 535v135h-803v-604h119v-134h803v603h-119zM85 99v537h735v-101h-650v-436h-85zM939 -35h-735v537h735v-537z" />
    <glyph glyph-name="uniE60A" unicode="&#xe60a;" 
d="M953 -27l-184 184l25 24l-25 25l-73 -74l-123 123l147 147q30 -11 61 -11q76 0 129 54q19 19 32 43.5t18 50.5t2 53t-14 53l-10 23l-79 -78l-63 -1v60l81 81l-24 10q-11 5 -23 8t-24 5t-25 2q-75 0 -128 -53q-25 -25 -39 -57t-14.5 -65.5t10.5 -67.5l-147 -147l-208 208
l24 24l-134 135l-74 -73l135 -135l24 24l209 -208l-148 -147q-29 11 -61 11q-75 0 -128 -53q-40 -40 -50.5 -94.5t12.5 -106.5l10 -23l80 80l61 1l-1 -64l-79 -79l23 -10q35 -15 73 -15q75 0 128 54q37 37 48.5 88.5t-5.5 100.5l147 147l122 -122l-73 -74l24 -24l25 24
l183 -183q26 -26 61.5 -26t61 25.5t25.5 61.5t-25 61zM120 659l25 24l85 -86l-24 -24zM365 80q18 -41 10 -85.5t-41 -76.5q-20 -21 -47 -32t-56 -11q-9 0 -17.5 1t-16.5 3l51 51l2 113l-110 -2l-53 -52q-9 37 1.5 73.5t37.5 63.5q43 43 104 43q31 0 59 -12l11 -4l351 351
l-5 11q-12 27 -12 56.5t11 57t32 48.5q11 10 23 18.5t25 13.5t27 8t29 3q8 0 16.5 -1t16.5 -3l-52 -52l-2 -110l114 1l51 51q4 -18 3.5 -37t-5.5 -36.5t-14.5 -33.5t-23.5 -30q-10 -10 -22 -18t-25 -13.5t-27.5 -8.5t-29.5 -3t-29.5 3t-28.5 9l-11 5l-351 -352zM928 -125
q-15 -15 -36.5 -15t-36.5 15l-184 184l74 73l183 -183q15 -16 15 -37.5t-15 -36.5z" />
    <glyph glyph-name="uniE60B" unicode="&#xe60b;" 
d="M961 611l-451 166l-468 -172v-30v-609l468 -169l468 169v639zM492 -160l-415 151v577l415 -151v-577zM510 447l-401 146l401 147l400 -148zM943 -9l-416 -151v577l416 150v-576z" />
    <glyph glyph-name="uniE60C" unicode="&#xe60c;" 
d="M564 704v-58v-28l26 -6q11 -3 22 -7t21.5 -8t20.5 -9.5t20 -11.5l24 -14l19 19l42 42l74 -74l-43 -43l-19 -19l13 -23q22 -39 33 -83l6 -27h28h62v-105h-65h-27l-7 -25q-11 -42 -34 -79l-14 -24l19 -19l48 -47l-74 -75l-49 49l-19 19l-23 -13q-36 -21 -78 -32l-26 -7v-27
v-69h-105v69v27l-26 7q-42 11 -78 32l-23 13l-19 -19l-49 -49l-74 75l47 47l20 19l-14 24q-12 18 -20.5 38t-13.5 41l-8 25h-26h-66v105h63h27l7 27q3 14 8 28.5t11 28t14 26.5l13 23l-19 19l-43 43l74 74l42 -42l19 -19l24 14q19 12 40.5 21t43.5 15l26 6v28v58h105z
M511 144q65 0 111.5 46.5t46.5 111.5t-46.5 111t-111.5 46t-111 -46t-46 -111t46 -111.5t111 -46.5zM599 739h-175v-93q-50 -13 -93 -40l-67 66l-123 -123l67 -68q-24 -43 -36 -92h-97v-175h100q13 -46 38 -87l-72 -72l123 -124l74 73q40 -23 86 -35v-104h175v104
q46 12 86 35l74 -73l123 124l-72 72q25 41 38 87h100v175h-97q-12 49 -37 92l68 68l-123 123l-67 -66q-43 27 -93 40v93zM511 179q-50 0 -86 36t-36 86.5t36 86.5t86.5 36t86.5 -36t36 -86q0 -20 -6.5 -39t-17.5 -34t-26 -26t-34 -17.5t-39 -6.5z" />
    <glyph glyph-name="uniE60D" unicode="&#xe60d;" 
d="M914 487q0 21 -14 41.5t-40 38t-63 32t-81.5 24.5t-96.5 15.5t-106 5.5q-110 0 -202.5 -21t-146 -57t-53.5 -79v-6q0 -3 1 -6v-64h801v64q1 3 1 6v6zM975 284q-23 0 -39.5 7.5t-18.5 17.5v1q0 25 -29 42.5t-70 17.5q-12 0 -24 -2t-22 -5t-18.5 -7.5t-15.5 -10t-11.5 -12
t-6.5 -13.5v-5l-1 -5q0 -10 -17 -18.5t-42 -8.5q-16 0 -29.5 4t-21 10.5t-7.5 12.5l-1 5l-1 5q-4 14 -17.5 25.5t-34.5 18t-46 6.5q-18 0 -34.5 -4t-29.5 -10.5t-21.5 -16t-11.5 -20.5v-4l-2 -5q0 -7 -7 -13t-21 -10t-30 -4q-23 0 -40 7.5t-18 17.5v1q0 25 -29 42.5
t-70 17.5q-25 0 -46 -6.5t-34.5 -18t-17.5 -25.5v-4l-1 -6q-1 -10 -17.5 -18.5t-41.5 -8.5v-32q24 0 45 6.5t34.5 17.5t17.5 25l2 4v7q1 10 18 18.5t41 8.5q22 0 38.5 -7.5t19.5 -16.5v-4q1 -24 29.5 -41t69.5 -17q24 0 45 6t34.5 17t17.5 25l1 6l1 6q0 5 4.5 9.5t12 8.5
t18.5 6t23 2q25 0 41.5 -8t17.5 -18l2 -7v-5q7 -21 34 -34.5t63 -13.5q37 0 64 13.5t34 35.5l1 5v5v1q1 10 18 18.5t41 8.5q15 0 28 -4t20.5 -9t9.5 -11v-4q1 -16 14 -29.5t35.5 -21t49.5 -7.5q9 0 20 1v33q-10 -2 -20 -2zM969 162.5q0 -16.5 -35.5 -28t-85.5 -11.5h-671
q-33 0 -60.5 5t-44 14.5t-16.5 19.5q0 17 35.5 28.5t85.5 11.5h671q50 0 85.5 -11.5t35.5 -28zM114 -7q0 -15 8.5 -28t24 -20.5t32.5 -7.5h667q27 0 46 16.5t19 39.5v62h-797v-62z" />
    <glyph glyph-name="uniE60E" unicode="&#xe60e;" 
d="M968 -151h-912v23q0 40 28.5 81t70.5 72t90.5 57t88 41t63.5 20q2 4 3.5 13t2.5 18q-56 63 -73 136q-24 11 -37 45q-9 22 -7 52t17 50v1q-2 19 -3 31.5t0 39.5t5 48.5t15.5 47t28.5 44.5q55 61 163 61t163 -61q21 -24 33.5 -54.5t14 -63.5t1 -51t-2.5 -42v-1
q10 -13 14.5 -31.5t3 -36.5t-7.5 -34q-13 -34 -37 -45q-17 -73 -73 -136q2 -22 6 -31q24 -5 63.5 -20t88 -41t90.5 -57t70.5 -72t28.5 -81v-23zM107 -104h810q-19 59 -122 123q-49 30 -101.5 52.5t-78.5 26.5q-41 6 -41 85v10l7 6q1 2 3 4.5t8.5 9.5t12.5 15.5t13 20.5
t13.5 24.5t11.5 28t8 30.5l3 20h20q1 0 3.5 3t6 9t5.5 15q4 16 2 30.5t-10 21.5l-9 7l1 12q0 3 1 13q13 122 -34 175q-41 45 -128 45q-44 0 -76 -11t-52 -34q-47 -53 -34 -175v-1q1 -9 1 -12l1 -12l-9 -7q-8 -7 -10 -21.5t2 -30.5q2 -9 5.5 -15t6 -9t3.5 -3h20l3 -20
q3 -15 8.5 -30.5t11 -28t13.5 -25t13.5 -20t12 -15.5t8 -9.5t3.5 -4.5l7 -6v-10q0 -9 -0.5 -18t-3.5 -21t-7 -21t-12 -16.5t-18 -8.5q-26 -4 -79 -26.5t-101 -52.5q-103 -64 -122 -123z" />
    <glyph glyph-name="uniE60F" unicode="&#xe60f;" 
d="M751 -143h-4q-17 0 -29.5 11.5t-12.5 28.5v293q-10 4 -21.5 18.5t-22.5 36t-17 54t-4 67.5q4 79 25 181t37 133q15 28 24.5 34.5t27.5 6.5h4q4 0 8.5 -2t8 -6t6.5 -9t5 -10.5t3.5 -11t2 -11.5t0.5 -10v-764q0 -27 -26 -37q-8 -3 -15 -3zM407 282v-385q0 -11 -5 -20.5
t-14.5 -14.5t-20.5 -5h-3q-8 0 -15.5 3t-13 8.5t-9 12.5t-3.5 16v385q-29 14 -52 45.5t-36 76t-13 94.5q0 103 50 171q1 2 13 -101.5t12 -106.5h16l54 260l55 -260h15q1 13 3.5 34.5t7 67.5t8 76t4.5 28q48 -67 48 -169q0 -75 -28 -134.5t-73 -81.5z" />
    <glyph glyph-name="uniE610" unicode="&#xe610;" 
d="M638 573h-49v-118h-355v-46h321q-102 -182 -338 -305q22 -25 35 -42q230 125 337 320v-272q0 -45 -41 -45q-49 0 -106 6q6 -29 10 -55q32 -1 59 -1.5t49 -0.5q78 0 78 83v312h151v46h-151v118zM839 723h-652q-30 0 -55 -14.5t-39.5 -39.5t-14.5 -54v-653q0 -45 32 -76.5
t77 -31.5h652q17 0 34 5.5t30 15.5t23.5 23t15.5 30t5 34v653q0 11 -2 21.5t-6 20.5t-10 18.5t-13.5 16t-16 13.5t-18.5 10t-20.5 6t-21.5 2zM893 -38q0 -14 -7 -26.5t-19.5 -20t-27.5 -7.5h-652q-23 0 -39 16t-16 38v653q0 22 16 38t39 16h652q15 0 27.5 -7.5t19.5 -20
t7 -26.5v-653z" />
  </font>
</defs>
</svg>
